<svg id="Camada_1" data-name="Camada 1" xmlns="http://www.w3.org/2000/svg" viewBox="0 0 585.19 213.69"><defs><style>.cls-1{fill:#fff;}</style></defs><title>AtivaCompleto-white</title><path class="cls-1" d="M29.42,195S75.74,74.79,79,68.81A19.08,19.08,0,0,1,95.67,58.9h16s-45.44,119.23-47.5,124S55.32,195,47.67,195Z" transform="translate(-29.42 -58.9)"/><polygon class="cls-1" points="89.49 0 94.02 0 147.25 136.13 114.48 136.13 75.69 36.71 89.49 0"/><path class="cls-1" d="M158.89,58.9H269.56c9,0,12,6.38,12,11.12V87.68h-47V195H204V87.65H168.16c-4.95,0-9.27-4.69-9.27-10.25Z" transform="translate(-29.42 -58.9)"/><path class="cls-1" d="M300.17,58.9h23.58c5,0,6.92,5.16,6.92,8.08V194.65h-30.5Z" transform="translate(-29.42 -58.9)"/><path class="cls-1" d="M346.79,58.9h30.58c4,0,5.33,2.88,6.13,5.5l34.67,93.5s34.83-90.67,36-93.33,3.33-5.67,8-5.67H490.5L433.67,195h-30.5Z" transform="translate(-29.42 -58.9)"/><path class="cls-1" d="M561.65,58.9,613.26,195H579.51L538.76,87.66c-13.56,35.55-36.17,92-37.58,95.22-2.06,4.74-8.85,12.16-16.5,12.16H466.43S513.28,74.27,516.58,68.3a17.78,17.78,0,0,1,16.1-9.38Z" transform="translate(-29.42 -58.9)"/><path class="cls-1" d="M234.53,230.66h4.58v41.5h-4.58Z" transform="translate(-29.42 -58.9)"/><path class="cls-1" d="M252.9,272.15h-4.31V248.08c0-1.85.05-3.67.16-5.41A36.8,36.8,0,0,1,263.07,240c10.81,0,11.91,5.11,11.91,11.54v20.61h-4.33V252.33c0-6-1.07-8.69-9-8.69a25.77,25.77,0,0,0-8.6,1.55c-.09,1.49-.12,3.47-.12,5Z" transform="translate(-29.42 -58.9)"/><path class="cls-1" d="M298.9,269.5c-.8,2.07-1.78,3.08-3.38,3.08s-2.71-1-3.49-3.08l-11.17-29.07h4.61l10.1,27,10.24-27h4.42Z" transform="translate(-29.42 -58.9)"/><path class="cls-1" d="M315,256.29c0-11.51,3.45-16.28,13.87-16.28,10.74,0,13.64,5.61,13.64,14.28,0,.89,0,2.07-.09,3-3.63.6-11.15,1.32-15.58,1.49l-7.52.3c.53,6.5,2.49,9.83,10.49,9.83A82.07,82.07,0,0,0,341,268l.39,3.49a79.14,79.14,0,0,1-13.29,1C317.73,272.58,315,265.69,315,256.29Zm12.61-.85c2.78-.12,7.55-.5,10.47-.87,0-.64.07-1.57.07-2.23,0-5.38-2.35-8.8-9.28-8.8-8,0-9.65,4.1-9.65,12.29Z" transform="translate(-29.42 -58.9)"/><path class="cls-1" d="M353.7,248.09c0,4.24,3.26,4.7,7.82,6.11,6.38,2,10,3.6,10,9.46,0,7-5.2,8.92-12.11,8.92a47.07,47.07,0,0,1-10.1-1l.43-3.4a52.22,52.22,0,0,0,8.16.75c3.72,0,9.21,0,9.21-5,0-4-2.81-4.74-7.76-6.22s-9.94-2.67-9.94-9.19,4.58-8.5,11-8.5A47.78,47.78,0,0,1,370.74,241l-.43,3.35a46.26,46.26,0,0,0-7.94-.77C358.67,243.64,353.7,243.73,353.7,248.09Z" transform="translate(-29.42 -58.9)"/><path class="cls-1" d="M387,231.48v9h7.07v3.42H387v19.8c0,4.52,1.55,5.34,5.4,5.34a11,11,0,0,0,1.73-.09l.36,3.3a22.79,22.79,0,0,1-3.44.34c-5.86,0-8.35-2.53-8.35-8.3V243.86h-5.81v-3.42h5.81v-8.26Z" transform="translate(-29.42 -58.9)"/><path class="cls-1" d="M400.84,230.93c0-2.33.59-3.17,2.6-3.17s2.62.84,2.62,3.17-.55,3.13-2.62,3.13S400.84,233.26,400.84,230.93Zm.44,9.51h4.33v31.72h-4.33Z" transform="translate(-29.42 -58.9)"/><path class="cls-1" d="M419,272.15h-4.31V248.08c0-1.85,0-3.67.18-5.41a36.3,36.3,0,0,1,13-2.65c4,0,6.59,1,8.21,2.56A27.12,27.12,0,0,1,447.8,240c9.51,0,10.92,5.27,10.92,11.54v20.61H454.4V252.32c0-6-1.5-8.66-8-8.66a19.13,19.13,0,0,0-8.34,2.1,18,18,0,0,1,.77,5.79v20.61H434.5V252.32c0-6-1.48-8.66-8-8.66a22.39,22.39,0,0,0-7.43,1.53c-.09,1.49-.12,3.47-.12,5Z" transform="translate(-29.42 -58.9)"/><path class="cls-1" d="M467.14,256.29c0-11.51,3.46-16.28,13.87-16.28,10.74,0,13.64,5.61,13.64,14.28,0,.89,0,2.07-.09,3-3.63.6-11.15,1.32-15.58,1.49l-7.52.3c.53,6.5,2.49,9.83,10.49,9.83a82,82,0,0,0,11.2-.89l.39,3.49a79.15,79.15,0,0,1-13.29,1C469.89,272.58,467.14,265.69,467.14,256.29Zm12.61-.85c2.78-.12,7.55-.5,10.47-.87,0-.64.07-1.57.07-2.23,0-5.38-2.35-8.8-9.28-8.8-8,0-9.65,4.1-9.65,12.29Z" transform="translate(-29.42 -58.9)"/><path class="cls-1" d="M506.91,272.15H502.6V248.08c0-1.85,0-3.67.16-5.41A36.8,36.8,0,0,1,517.08,240c10.81,0,11.91,5.11,11.91,11.54v20.61h-4.33V252.33c0-6-1.07-8.69-9-8.69a25.76,25.76,0,0,0-8.6,1.55c-.09,1.49-.13,3.47-.13,5Z" transform="translate(-29.42 -58.9)"/><path class="cls-1" d="M545.28,231.48v9h7.07v3.42h-7.07v19.8c0,4.52,1.55,5.34,5.4,5.34a11,11,0,0,0,1.73-.09l.36,3.3a22.79,22.79,0,0,1-3.44.34c-5.86,0-8.35-2.53-8.35-8.3V243.86h-5.81v-3.42H541v-8.26Z" transform="translate(-29.42 -58.9)"/><path class="cls-1" d="M557.71,256.29c0-11.86,3.7-16.28,13.93-16.28s13.93,4.58,13.93,16.28-3.69,16.3-13.93,16.3S557.71,268.17,557.71,256.29Zm23.51,0c0-9.64-2.28-12.63-9.58-12.63-7.14,0-9.56,2.56-9.56,12.63s2.42,12.64,9.56,12.64,9.58-3,9.58-12.64Z" transform="translate(-29.42 -58.9)"/><path class="cls-1" d="M596.79,248.09c0,4.24,3.26,4.7,7.82,6.11,6.38,2,10,3.6,10,9.46,0,7-5.2,8.92-12.11,8.92a47.07,47.07,0,0,1-10.1-1l.43-3.4a52.22,52.22,0,0,0,8.16.75c3.72,0,9.21,0,9.21-5,0-4-2.81-4.74-7.76-6.22s-9.94-2.67-9.94-9.19,4.58-8.5,11-8.5A47.78,47.78,0,0,1,613.83,241l-.43,3.35a46.26,46.26,0,0,0-7.94-.77C601.76,243.64,596.79,243.73,596.79,248.09Z" transform="translate(-29.42 -58.9)"/></svg>